<svg width="54" height="43" viewBox="0 0 54 43" fill="none" xmlns="http://www.w3.org/2000/svg">
<path d="M38.4029 7.05176e-06C42.4296 7.05176e-06 46.2913 1.59959 49.1386 4.44687C51.9859 7.29414 53.5854 11.1559 53.5854 15.1825V27.6858C53.5854 30.7988 52.6284 33.8366 50.8441 36.3875C49.0598 38.9384 46.5345 40.8792 43.6103 41.947C40.6861 43.0147 37.5044 43.1577 34.4962 42.3567C31.488 41.5556 28.7987 39.8492 26.7928 37.4687C24.7868 39.8492 22.0975 41.5556 19.0893 42.3567C16.0811 43.1577 12.8994 43.0147 9.97522 41.947C7.05103 40.8792 4.52573 38.9384 2.74145 36.3875C0.957165 33.8366 0.000152708 30.7988 7.00951e-05 27.6858V15.1825C0.000152708 12.0695 0.957165 9.03175 2.74145 6.48082C4.52573 3.92988 7.05103 1.98909 9.97522 0.921367C12.8994 -0.146353 16.0811 -0.289382 19.0893 0.511656C22.0975 1.31269 24.7868 3.01908 26.7928 5.39963C28.2164 3.70658 29.9936 2.34584 31.9994 1.413C34.0051 0.480168 36.1909 -0.00212708 38.4029 7.05176e-06V7.05176e-06Z" fill="#9B9B9B"/>
<path d="M38.403 1.78617C41.9559 1.78617 45.3633 3.19757 47.8756 5.70987C50.3879 8.22217 51.7993 11.6296 51.7993 15.1825V27.6858C51.8002 30.6366 50.8269 33.5052 49.0303 35.8461C47.2337 38.1869 44.7146 39.8692 41.8639 40.6315C39.0133 41.3939 35.9907 41.1937 33.2655 40.062C30.5403 38.9304 28.2649 36.9306 26.7928 34.3732C25.3207 36.9306 23.0454 38.9304 20.3201 40.062C17.5949 41.1937 14.5723 41.3939 11.7217 40.6315C8.87105 39.8692 6.35186 38.1869 4.55531 35.8461C2.75876 33.5052 1.78537 30.6366 1.7863 27.6858V15.1825C1.78537 12.2317 2.75876 9.36312 4.55531 7.02223C6.35186 4.68134 8.87105 2.99912 11.7217 2.23677C14.5723 1.47443 17.5949 1.67462 20.3201 2.80627C23.0454 3.93791 25.3207 5.93768 26.7928 8.49506C27.9675 6.45494 29.6593 4.76055 31.6977 3.58271C33.736 2.40487 36.0488 1.7852 38.403 1.78617V1.78617Z" fill="#B3B3B3"/>
<path d="M28.5796 15.1825C28.5796 12.7461 27.9295 10.4634 26.7935 8.495C28.3274 5.83842 30.7236 3.78628 33.5845 2.6792H33.8828C31.9287 3.85093 30.4212 8.48428 30.4212 10.717V32.3744C30.4212 34.8304 30.7016 37.8991 33.881 40.2997C30.8924 39.2237 28.3815 37.1241 26.7935 34.3732C27.9672 32.3401 28.5833 30.0332 28.5796 27.6857V15.1825V15.1825ZM1.78696 15.1825C1.78695 12.476 2.60636 9.83299 4.13736 7.60121C5.66836 5.36943 7.8392 3.65349 10.3642 2.6792H10.6625C7.70457 4.63328 5.47184 8.15027 5.47184 10.7724V32.1512C5.47184 34.6072 7.47951 37.8991 10.6607 40.2997C8.06256 39.367 5.81582 37.6548 4.22752 35.3971C2.63923 33.1393 1.78688 30.4462 1.78696 27.6857V15.1825V15.1825Z" fill="#D3D3D3" fill-opacity="0.35"/>
<path d="M43.6512 10.7175C45.3092 10.7175 46.8994 11.3762 48.0718 12.5486C49.2442 13.721 49.9028 15.3111 49.9028 16.9692V25.9001C49.9028 26.721 49.7411 27.534 49.427 28.2924C49.1128 29.0509 48.6523 29.7401 48.0718 30.3206C47.4913 30.9011 46.8021 31.3616 46.0436 31.6758C45.2851 31.99 44.4722 32.1517 43.6512 32.1517C42.8302 32.1517 42.0173 31.99 41.2588 31.6758C40.5003 31.3616 39.8112 30.9011 39.2306 30.3206C38.6501 29.7401 38.1896 29.0509 37.8755 28.2924C37.5613 27.534 37.3996 26.721 37.3996 25.9001V16.9692C37.3996 15.3111 38.0582 13.721 39.2306 12.5486C40.403 11.3762 41.9932 10.7175 43.6512 10.7175V10.7175ZM20.5416 10.7175C22.1997 10.7175 23.7898 11.3762 24.9622 12.5486C26.1346 13.721 26.7932 15.3111 26.7932 16.9692V25.9001C26.7932 26.721 26.6315 27.534 26.3174 28.2924C26.0032 29.0509 25.5427 29.7401 24.9622 30.3206C24.3817 30.9011 23.6925 31.3616 22.934 31.6758C22.1755 31.99 21.3626 32.1517 20.5416 32.1517C19.7206 32.1517 18.9077 31.99 18.1492 31.6758C17.3907 31.3616 16.7016 30.9011 16.121 30.3206C15.5405 29.7401 15.08 29.0509 14.7659 28.2924C14.4517 27.534 14.29 26.721 14.29 25.9001V16.9692C14.29 15.3111 14.9486 13.721 16.121 12.5486C17.2935 11.3762 18.8836 10.7175 20.5416 10.7175V10.7175Z" fill="black"/>
<path d="M39.7642 17.6136C39.0997 17.0598 39.1301 15.931 39.8321 15.0879C40.534 14.2448 41.6397 14.0108 42.3041 14.5628C42.9668 15.1147 42.9364 16.2453 42.2345 17.0884C41.5343 17.9297 40.4269 18.1655 39.7642 17.6136V17.6136ZM16.5492 17.6136C15.8866 17.0598 15.9169 15.931 16.6189 15.0879C17.3191 14.2448 18.4265 14.0108 19.0892 14.5628C19.7536 15.1147 19.7215 16.2453 19.0213 17.0884C18.3193 17.9297 17.2137 18.1655 16.5492 17.6136Z" fill="#F4F4F4"/>
</svg>
