<svg width="870" height="696" viewBox="0 0 870 696" fill="none" xmlns="http://www.w3.org/2000/svg">
<path d="M623.5 0.000114491C688.876 0.000114491 751.574 25.9706 797.802 72.1983C844.03 118.426 870 181.124 870 246.5V449.5C869.999 500.042 854.461 549.363 825.492 590.779C796.522 632.196 755.522 663.706 708.046 681.041C660.569 698.376 608.911 700.699 560.071 687.693C511.231 674.688 467.568 646.983 435 608.333C402.432 646.983 358.769 674.688 309.929 687.693C261.089 700.699 209.431 698.376 161.954 681.041C114.478 663.706 73.4775 632.196 44.5084 590.779C15.5392 549.363 0.00134128 500.042 0 449.5V246.5C0.00134128 195.958 15.5392 146.637 44.5084 105.221C73.4775 63.8047 114.478 32.2944 161.954 14.9591C209.431 -2.37615 261.089 -4.69834 309.929 8.30713C358.769 21.3126 402.432 49.0171 435 87.6671C458.115 60.1792 486.968 38.0865 519.533 22.9412C552.099 7.79589 587.585 -0.0345348 623.5 0.000114491V0.000114491Z" fill="#9B9B9B"/>
<path d="M623.5 29.0001C681.185 29.0001 736.507 51.9152 777.296 92.7044C818.085 133.494 841 188.816 841 246.5V449.5C841.015 497.409 825.211 543.982 796.043 581.989C766.874 619.995 725.974 647.307 679.691 659.684C633.409 672.062 584.334 668.811 540.089 650.438C495.843 632.065 458.901 599.597 435 558.076C411.099 599.597 374.157 632.065 329.911 650.438C285.666 668.811 236.591 672.062 190.309 659.684C144.026 647.307 103.126 619.995 73.9571 581.989C44.7887 543.982 28.985 497.409 29 449.5V246.5C28.985 198.591 44.7887 152.018 73.9571 114.012C103.126 76.0054 144.026 48.6932 190.309 36.316C236.591 23.9387 285.666 27.189 329.911 45.5621C374.157 63.9352 411.099 96.403 435 137.924C454.073 104.801 481.54 77.2915 514.634 58.1683C547.728 39.0452 585.278 28.9844 623.5 29.0001V29.0001Z" fill="white"/>
<path d="M464 246.5C464 206.944 453.444 169.882 435 137.924C459.904 94.7925 498.809 61.4744 545.258 43.5001H550.101C518.375 62.5241 493.899 137.75 493.899 174V525.625C493.899 565.5 498.452 615.322 550.072 654.298C501.55 636.829 460.783 602.739 435 558.076C454.056 525.068 464.06 487.614 464 449.5V246.5V246.5ZM29 246.5C28.9999 202.559 42.3037 159.647 67.1607 123.413C92.0177 87.1782 127.263 59.3185 168.258 43.5001H173.101C125.077 75.2261 88.827 132.327 88.827 174.899V522C88.827 561.875 121.423 615.322 173.072 654.298C130.889 639.156 94.4117 611.357 68.6245 574.7C42.8373 538.044 28.9987 494.318 29 449.5V246.5V246.5Z" fill="#D3D3D3"/>
<path d="M708.702 174C735.621 174 761.438 184.694 780.473 203.729C799.508 222.764 810.202 248.581 810.202 275.5V420.5C810.202 433.829 807.577 447.028 802.476 459.342C797.375 471.657 789.898 482.846 780.473 492.271C771.048 501.697 759.859 509.173 747.544 514.274C735.23 519.375 722.031 522 708.702 522C695.373 522 682.174 519.375 669.86 514.274C657.545 509.173 646.356 501.697 636.931 492.271C627.505 482.846 620.029 471.657 614.928 459.342C609.827 447.028 607.202 433.829 607.202 420.5V275.5C607.202 248.581 617.896 222.764 636.931 203.729C655.966 184.694 681.782 174 708.702 174V174ZM333.5 174C360.419 174 386.236 184.694 405.271 203.729C424.306 222.764 435 248.581 435 275.5V420.5C435 433.829 432.375 447.028 427.274 459.342C422.173 471.657 414.696 482.846 405.271 492.271C395.846 501.697 384.657 509.173 372.342 514.274C360.028 519.375 346.829 522 333.5 522C320.171 522 306.972 519.375 294.658 514.274C282.343 509.173 271.154 501.697 261.729 492.271C252.303 482.846 244.827 471.657 239.726 459.342C234.625 447.028 232 433.829 232 420.5V275.5C232 248.581 242.694 222.764 261.729 203.729C280.764 184.694 306.58 174 333.5 174V174Z" fill="black"/>
<path d="M645.598 285.969C634.81 276.979 635.303 258.651 646.7 244.963C658.097 231.275 676.048 227.476 686.836 236.437C697.595 245.398 697.102 263.755 685.705 277.443C674.337 291.102 656.357 294.93 645.598 285.969V285.969ZM268.685 285.969C257.926 276.979 258.419 258.651 269.816 244.963C281.184 231.275 299.164 227.476 309.923 236.437C320.711 245.398 320.189 263.755 308.821 277.443C297.424 291.102 279.473 294.93 268.685 285.969Z" fill="#F4F4F4"/>
</svg>
