<svg width="925" height="926" viewBox="0 0 925 926" fill="none" xmlns="http://www.w3.org/2000/svg">
<path d="M797.414 752.316L733.621 688.523V606.038H669.828V714.933L752.312 797.417L797.414 752.316Z" fill="#D19494"/>
<path d="M701.724 925.003C657.564 925.003 614.396 911.908 577.678 887.374C540.961 862.84 512.343 827.969 495.444 787.171C478.545 746.372 474.123 701.479 482.738 658.168C491.353 614.857 512.618 575.073 543.844 543.847C575.07 512.621 614.853 491.356 658.165 482.741C701.476 474.126 746.369 478.548 787.168 495.447C827.966 512.346 862.837 540.964 887.371 577.682C911.905 614.399 924.999 657.567 924.999 701.727C924.932 760.923 901.387 817.674 859.529 859.532C817.671 901.39 760.919 924.935 701.724 925.003V925.003ZM701.724 542.244C670.181 542.244 639.347 551.598 613.12 569.122C586.893 586.646 566.452 611.554 554.381 640.696C542.31 669.837 539.152 701.904 545.305 732.84C551.459 763.777 566.648 792.194 588.952 814.498C611.256 836.802 639.674 851.991 670.61 858.145C701.547 864.299 733.613 861.141 762.755 849.07C791.897 836.999 816.805 816.557 834.329 790.331C851.853 764.104 861.206 733.27 861.206 701.727C861.164 659.442 844.348 618.902 814.448 589.002C784.549 559.103 744.008 542.286 701.724 542.244V542.244ZM446.551 829.313C345.071 829.203 247.779 788.842 176.022 717.084C104.264 645.327 63.9028 548.035 63.7931 446.555H0C0.135073 564.946 47.2257 678.45 130.941 762.165C214.656 845.88 328.16 892.971 446.551 893.106V829.313ZM318.965 191.382H161.971C213.586 133.593 281.545 92.8532 356.84 74.5645C432.135 56.2758 511.21 61.3014 583.583 88.9751C655.957 116.649 718.212 165.664 762.096 229.523C805.979 293.383 829.42 369.071 829.31 446.555H893.103C893.243 357.78 866.878 270.984 817.386 197.285C767.893 123.587 697.526 66.3411 615.298 32.8811C533.07 -0.578849 442.725 -8.72955 355.836 9.47305C268.947 27.6757 189.47 71.4028 127.586 135.053V0.00326875H63.7931V255.175H318.965V191.382Z" fill="#D19494"/>
</svg>
