<svg width="86" height="86" viewBox="0 0 86 86" fill="none" xmlns="http://www.w3.org/2000/svg">
<g filter="url(#filter0_d_129_312)">
<path d="M76.2458 27.8028C78.0028 32.3871 78.8621 37.449 78.8621 42.7222C78.8621 52.4692 75.9194 61.4914 69.83 68.1063C63.7093 74.7523 54.634 78.7222 42.8633 78.7222C31.0925 78.7222 22.0148 74.7523 15.8942 68.1063C9.80475 61.4938 6.86206 52.4692 6.86206 42.7222C6.86206 32.9751 9.80475 23.9505 15.8942 17.3381C22.0148 10.692 31.0925 6.72217 42.8657 6.72217C49.1615 6.72217 54.6868 7.85744 59.4009 9.93118C58.6999 10.4007 58.1347 11.0464 57.7623 11.8035C57.3898 12.5606 57.2232 13.4024 57.2791 14.2443C53.2539 12.5066 48.4606 11.5225 42.8657 11.5225C32.2326 11.5225 24.5086 15.0747 19.4297 20.5903C14.3148 26.1371 11.6625 33.9112 11.6625 42.7198C11.6625 51.5308 14.3172 59.3049 19.4273 64.854C24.5062 70.3696 32.2278 73.9218 42.8633 73.9218C53.4963 73.9218 61.2203 70.3696 66.2992 64.854C71.4093 59.3073 74.064 51.5332 74.064 42.7222C74.064 37.7826 73.2287 33.1695 71.5941 29.0893L75.2329 28.1796C75.5929 28.0908 75.929 27.9636 76.2458 27.8028Z" fill="white"/>
<path d="M19.5668 43.4279C20.0169 42.9779 20.6273 42.7252 21.2637 42.7252C21.9002 42.7252 22.5106 42.9779 22.9607 43.4279C23.3039 43.7687 25.2481 45.1248 28.4645 45.1248C31.6808 45.1248 33.625 43.7687 33.9682 43.4279C34.4209 42.9907 35.0272 42.7488 35.6565 42.7542C36.2859 42.7597 36.8879 43.0121 37.3329 43.4571C37.7779 43.9021 38.0304 44.5041 38.0358 45.1334C38.0413 45.7628 37.7994 46.3691 37.3622 46.8217C36.102 48.0818 32.9289 49.9251 28.4645 49.9251C24 49.9251 20.8269 48.0818 19.5668 46.8217C19.1168 46.3716 18.864 45.7612 18.864 45.1248C18.864 44.4884 19.1168 43.878 19.5668 43.4279ZM48.3697 43.4279C48.8198 42.9779 49.4302 42.7252 50.0666 42.7252C50.7031 42.7252 51.3135 42.9779 51.7636 43.4279C52.1044 43.7687 54.051 45.1248 57.2673 45.1248C60.4837 45.1248 62.4279 43.7687 62.7711 43.4279C63.2238 42.9907 63.8301 42.7488 64.4594 42.7542C65.0888 42.7597 65.6908 43.0121 66.1358 43.4571C66.5808 43.9021 66.8333 44.5041 66.8387 45.1334C66.8442 45.7628 66.6023 46.3691 66.165 46.8217C64.9049 48.0818 61.7318 49.9251 57.2673 49.9251C52.8029 49.9251 49.6298 48.0818 48.3697 46.8217C47.9197 46.3716 47.6669 45.7612 47.6669 45.1248C47.6669 44.4884 47.9197 43.878 48.3697 43.4279ZM38.0654 61.9259C38.0654 60.6528 38.5712 59.4318 39.4715 58.5316C40.3717 57.6314 41.5927 57.1256 42.8659 57.1256C44.1391 57.1256 45.3601 57.6314 46.2604 58.5316C47.1606 59.4318 47.6664 60.6528 47.6664 61.9259C47.6664 63.1991 47.1606 64.42 46.2604 65.3203C45.3601 66.2205 44.1391 66.7262 42.8659 66.7262C41.5927 66.7262 40.3717 66.2205 39.4715 65.3203C38.5712 64.42 38.0654 63.1991 38.0654 61.9259ZM73.8146 12.5954C74.0194 12.1851 74.1023 11.7247 74.0536 11.2687C74.0049 10.8127 73.8265 10.3802 73.5397 10.0224C73.2528 9.66459 72.8694 9.39645 72.4349 9.24971C72.0004 9.10298 71.533 9.08379 71.0879 9.19442L61.487 11.5946C61.1765 11.6666 60.8835 11.7996 60.6251 11.986C60.3666 12.1724 60.1479 12.4084 59.9816 12.6802C59.8153 12.9521 59.7048 13.2543 59.6566 13.5693C59.6083 13.8843 59.6233 14.2057 59.7005 14.5148C59.7778 14.824 59.9159 15.1146 60.1067 15.3699C60.2975 15.6251 60.5372 15.8397 60.8119 16.0013C61.0865 16.1629 61.3906 16.2682 61.7064 16.3111C62.0222 16.3539 62.3433 16.3335 62.6511 16.2509L67.1875 15.1156L62.3223 24.8507C62.1175 25.261 62.0345 25.7214 62.0833 26.1774C62.132 26.6334 62.3103 27.0659 62.5972 27.4237C62.884 27.7815 63.2674 28.0497 63.7019 28.1964C64.1364 28.3431 64.6039 28.3623 65.0489 28.2517L74.6499 25.8515C74.9603 25.7796 75.2533 25.6465 75.5118 25.4601C75.7702 25.2737 75.989 25.0377 76.1553 24.7659C76.3216 24.494 76.432 24.1918 76.4803 23.8768C76.5286 23.5618 76.5136 23.2404 76.4363 22.9313C76.359 22.6221 76.2209 22.3315 76.0301 22.0763C75.8393 21.821 75.5996 21.6064 75.325 21.4448C75.0503 21.2832 74.7462 21.1779 74.4305 21.135C74.1147 21.0922 73.7935 21.1126 73.4858 21.1952L68.9493 22.3305L73.8146 12.5954V12.5954ZM51.2667 18.7231C50.9485 18.7231 50.6432 18.8495 50.4181 19.0745C50.1931 19.2996 50.0666 19.6049 50.0666 19.9231C50.0666 20.2414 50.1931 20.5467 50.4181 20.7717C50.6432 20.9968 50.9485 21.1232 51.2667 21.1232H56.0672L50.3066 28.8037C50.1729 28.982 50.0915 29.194 50.0715 29.416C50.0515 29.638 50.0936 29.8611 50.1933 30.0605C50.293 30.2598 50.4462 30.4275 50.6358 30.5446C50.8254 30.6618 51.0439 30.7239 51.2667 30.7239H58.4675C58.7858 30.7239 59.091 30.5974 59.3161 30.3724C59.5411 30.1473 59.6676 29.8421 59.6676 29.5238C59.6676 29.2055 59.5411 28.9002 59.3161 28.6752C59.091 28.4501 58.7858 28.3237 58.4675 28.3237H53.667L59.4276 20.6432C59.5613 20.4649 59.6427 20.2529 59.6627 20.0309C59.6828 19.8089 59.6406 19.5858 59.5409 19.3864C59.4412 19.1871 59.288 19.0195 59.0984 18.9023C58.9088 18.7851 58.6903 18.7231 58.4675 18.7231H51.2667ZM38.1278 24.3442C38.2286 24.0426 38.445 23.7934 38.7294 23.6512C39.0138 23.509 39.343 23.4854 39.6448 23.5858L46.8455 25.9859C47.065 26.0594 47.2586 26.1947 47.403 26.3756C47.5473 26.5565 47.6363 26.7753 47.6591 27.0057C47.6819 27.236 47.6377 27.468 47.5316 27.6738C47.4256 27.8795 47.2623 28.0502 47.0615 28.1653L40.9937 31.6359L45.6502 33.1888C45.8038 33.2354 45.9464 33.3122 46.0698 33.4149C46.1931 33.5175 46.2946 33.6439 46.3683 33.7864C46.4419 33.929 46.4863 34.0849 46.4986 34.2449C46.511 34.4049 46.4911 34.5657 46.4403 34.7179C46.3894 34.8701 46.3085 35.0105 46.2023 35.1309C46.0962 35.2512 45.9671 35.3491 45.8225 35.4187C45.6779 35.4883 45.5208 35.5281 45.3605 35.536C45.2002 35.5438 45.04 35.5194 44.8893 35.4642L37.6886 33.064C37.4691 32.9906 37.2755 32.8553 37.1311 32.6743C36.9868 32.4934 36.8978 32.2746 36.875 32.0443C36.8522 31.8139 36.8964 31.5819 37.0024 31.3762C37.1085 31.1704 37.2717 30.9997 37.4726 30.8847L43.538 27.4116L38.8815 25.8587C38.5803 25.7575 38.3316 25.5409 38.1899 25.2566C38.0482 24.9722 38.025 24.6432 38.1254 24.3418L38.1278 24.3442Z" fill="white"/>
</g>
<defs>
<filter id="filter0_d_129_312" x="6.61569" y="6.72217" width="72.4927" height="72.4927" filterUnits="userSpaceOnUse" color-interpolation-filters="sRGB">
<feFlood flood-opacity="0" result="BackgroundImageFix"/>
<feColorMatrix in="SourceAlpha" type="matrix" values="0 0 0 0 0 0 0 0 0 0 0 0 0 0 0 0 0 0 127 0" result="hardAlpha"/>
<feOffset dy="0.24637"/>
<feGaussianBlur stdDeviation="0.123185"/>
<feComposite in2="hardAlpha" operator="out"/>
<feColorMatrix type="matrix" values="0 0 0 0 0 0 0 0 0 0 0 0 0 0 0 0 0 0 0.25 0"/>
<feBlend mode="normal" in2="BackgroundImageFix" result="effect1_dropShadow_129_312"/>
<feBlend mode="normal" in="SourceGraphic" in2="effect1_dropShadow_129_312" result="shape"/>
</filter>
</defs>
</svg>
