<svg width="926" height="926" viewBox="0 0 926 926" fill="none" xmlns="http://www.w3.org/2000/svg">
<path d="M891.407 270.842C913.98 329.741 925.02 394.776 925.02 462.525C925.02 587.755 887.214 703.671 808.98 788.658C730.345 874.046 613.75 925.051 462.525 925.051C311.3 925.051 194.674 874.046 116.04 788.658C37.8063 703.702 0 587.755 0 462.525C0 337.296 37.8063 221.349 116.04 136.392C194.674 51.0045 311.3 0 462.556 0C543.442 0 614.429 14.5859 674.993 41.2292C665.986 47.2614 658.725 55.5578 653.94 65.2848C649.155 75.0119 647.014 85.8269 647.733 96.6434C596.019 74.3174 534.437 61.6742 462.556 61.6742C325.948 61.6742 226.714 107.313 161.463 178.177C95.7491 249.441 61.6742 349.322 61.6742 462.495C61.6742 575.697 95.78 675.579 161.432 746.874C226.683 817.738 325.886 863.376 462.525 863.376C599.134 863.376 698.367 817.738 763.619 746.874C829.271 675.61 863.376 575.728 863.376 462.525C863.376 399.063 852.645 339.794 831.645 287.371L878.394 275.683C883.02 274.542 887.337 272.908 891.407 270.842Z" fill="#FFA826"/>
<path d="M163.222 471.592C169.004 465.811 176.846 462.564 185.023 462.564C193.2 462.564 201.042 465.811 206.825 471.592C211.235 475.971 236.213 493.394 277.535 493.394C318.856 493.394 343.834 475.971 348.244 471.592C354.06 465.975 361.849 462.867 369.935 462.937C378.02 463.007 385.755 466.25 391.472 471.968C397.189 477.685 400.433 485.42 400.503 493.505C400.573 501.59 397.465 509.38 391.848 515.196C375.658 531.385 334.892 555.068 277.535 555.068C220.178 555.068 179.411 531.385 163.222 515.196C157.44 509.413 154.193 501.571 154.193 493.394C154.193 485.217 157.44 477.375 163.222 471.592ZM533.266 471.592C539.049 465.811 546.891 462.564 555.068 462.564C563.245 462.564 571.087 465.811 576.87 471.592C581.249 475.971 606.258 493.394 647.58 493.394C688.901 493.394 713.879 475.971 718.289 471.592C724.105 465.975 731.894 462.867 739.98 462.937C748.065 463.007 755.8 466.25 761.517 471.968C767.234 477.685 770.478 485.42 770.548 493.505C770.618 501.59 767.51 509.38 761.893 515.196C745.703 531.385 704.937 555.068 647.58 555.068C590.223 555.068 549.456 531.385 533.266 515.196C527.485 509.413 524.238 501.571 524.238 493.394C524.238 485.217 527.485 477.375 533.266 471.592ZM400.883 709.254C400.883 692.897 407.381 677.21 418.947 665.643C430.513 654.077 446.2 647.579 462.557 647.579C478.914 647.579 494.601 654.077 506.167 665.643C517.733 677.21 524.231 692.897 524.231 709.254C524.231 725.611 517.733 741.298 506.167 752.864C494.601 764.43 478.914 770.928 462.557 770.928C446.2 770.928 430.513 764.43 418.947 752.864C407.381 741.298 400.883 725.611 400.883 709.254ZM860.17 75.4591C862.801 70.1872 863.867 64.2718 863.241 58.4132C862.615 52.5545 860.324 46.9978 856.638 42.4008C852.953 37.8037 848.027 34.3587 842.445 32.4734C836.863 30.5882 830.857 30.3417 825.139 31.763L701.791 62.6001C697.803 63.5248 694.039 65.2345 690.718 67.6293C687.398 70.0241 684.587 73.0562 682.451 76.5487C680.314 80.0411 678.895 83.924 678.275 87.9709C677.655 92.0177 677.847 96.1475 678.84 100.119C679.833 104.091 681.607 107.825 684.058 111.104C686.51 114.384 689.589 117.142 693.118 119.218C696.647 121.294 700.553 122.647 704.61 123.197C708.667 123.748 712.793 123.485 716.747 122.424L775.029 107.838L712.522 232.913C709.892 238.185 708.826 244.101 709.452 249.959C710.078 255.818 712.369 261.375 716.055 265.972C719.74 270.569 724.665 274.014 730.248 275.899C735.83 277.784 741.835 278.031 747.553 276.609L870.902 245.772C874.89 244.848 878.654 243.138 881.975 240.743C885.295 238.348 888.106 235.316 890.242 231.824C892.378 228.331 893.798 224.448 894.418 220.402C895.038 216.355 894.846 212.225 893.853 208.253C892.86 204.281 891.086 200.547 888.635 197.268C886.183 193.989 883.103 191.231 879.575 189.155C876.046 187.078 872.14 185.726 868.083 185.175C864.026 184.625 859.9 184.888 855.946 185.948L797.664 200.534L860.17 75.4591V75.4591ZM570.487 154.186C566.398 154.186 562.476 155.811 559.584 158.702C556.693 161.594 555.068 165.515 555.068 169.605C555.068 173.694 556.693 177.616 559.584 180.507C562.476 183.399 566.398 185.023 570.487 185.023H632.161L558.152 283.702C556.434 285.993 555.388 288.717 555.131 291.568C554.873 294.42 555.416 297.287 556.696 299.848C557.977 302.41 559.945 304.563 562.381 306.069C564.817 307.574 567.623 308.372 570.487 308.372H662.998C667.087 308.372 671.009 306.747 673.901 303.856C676.792 300.964 678.417 297.042 678.417 292.953C678.417 288.864 676.792 284.942 673.901 282.05C671.009 279.159 667.087 277.534 662.998 277.534H601.324L675.333 178.856C677.051 176.565 678.097 173.841 678.354 170.989C678.612 168.138 678.069 165.27 676.789 162.709C675.508 160.148 673.54 157.994 671.104 156.489C668.668 154.984 665.862 154.186 662.998 154.186H570.487ZM401.685 226.407C402.979 222.532 405.759 219.329 409.413 217.502C413.067 215.675 417.297 215.373 421.174 216.662L513.685 247.499C516.505 248.442 518.992 250.181 520.847 252.506C522.702 254.83 523.844 257.641 524.138 260.601C524.431 263.56 523.862 266.541 522.5 269.184C521.138 271.828 519.04 274.021 516.46 275.499L438.504 320.09L498.328 340.041C500.301 340.639 502.134 341.627 503.719 342.946C505.304 344.264 506.608 345.888 507.554 347.719C508.5 349.551 509.07 351.554 509.229 353.609C509.387 355.665 509.132 357.731 508.479 359.687C507.825 361.642 506.785 363.446 505.422 364.993C504.059 366.539 502.399 367.797 500.541 368.691C498.684 369.585 496.665 370.097 494.606 370.197C492.547 370.298 490.489 369.984 488.553 369.275L396.042 338.438C393.221 337.494 390.734 335.756 388.88 333.431C387.025 331.107 385.882 328.295 385.589 325.336C385.295 322.377 385.864 319.396 387.226 316.753C388.589 314.109 390.686 311.916 393.266 310.438L471.191 265.816L411.368 245.865C407.498 244.564 404.303 241.782 402.482 238.128C400.661 234.475 400.363 230.248 401.654 226.376L401.685 226.407Z" fill="#FFA826"/>
</svg>
