<svg width="1389" height="1389" viewBox="0 0 1389 1389" fill="none" xmlns="http://www.w3.org/2000/svg">
<g filter="url(#filter0_d_101_35)">
<path d="M1123.39 502.827C1145.96 561.723 1157 626.755 1157 694.5C1157 819.723 1119.19 935.633 1040.96 1020.62C962.33 1106 845.737 1157 694.515 1157C543.294 1157 426.67 1106 348.037 1020.62C269.805 935.664 232 819.723 232 694.5C232 569.277 269.805 453.336 348.037 368.385C426.67 283.002 543.294 232 694.546 232C775.43 232 846.416 246.585 906.978 273.227C897.972 279.259 890.711 287.555 885.926 297.281C881.141 307.008 879 317.822 879.719 328.638C828.006 306.313 766.426 293.671 694.546 293.671C557.941 293.671 458.709 339.307 393.459 410.167C327.747 481.427 293.673 581.303 293.673 694.469C293.673 807.666 327.778 907.542 393.429 978.833C458.679 1049.69 557.879 1095.33 694.515 1095.33C831.121 1095.33 930.352 1049.69 995.602 978.833C1061.25 907.573 1095.36 807.697 1095.36 694.5C1095.36 631.041 1084.63 571.775 1063.63 519.355L1110.38 507.668C1115 506.527 1119.32 504.893 1123.39 502.827Z" fill="#FFA826"/>
<path d="M395.218 703.566C401.001 697.786 408.843 694.538 417.019 694.538C425.196 694.538 433.038 697.786 438.821 703.566C443.23 707.945 468.208 725.367 509.529 725.367C550.849 725.367 575.827 707.945 580.236 703.566C586.052 697.95 593.842 694.842 601.927 694.912C610.012 694.982 617.746 698.225 623.464 703.942C629.181 709.659 632.424 717.393 632.494 725.478C632.564 733.563 629.456 741.352 623.839 747.168C607.65 763.356 566.884 787.038 509.529 787.038C452.173 787.038 411.407 763.356 395.218 747.168C389.437 741.385 386.189 733.544 386.189 725.367C386.189 717.191 389.437 709.349 395.218 703.566ZM765.255 703.566C771.038 697.786 778.88 694.538 787.056 694.538C795.233 694.538 803.075 697.786 808.858 703.566C813.236 707.945 838.245 725.367 879.566 725.367C920.886 725.367 945.864 707.945 950.273 703.566C956.089 697.95 963.879 694.842 971.964 694.912C980.049 694.982 987.783 698.225 993.501 703.942C999.218 709.659 1002.46 717.393 1002.53 725.478C1002.6 733.563 999.493 741.352 993.876 747.168C977.687 763.356 936.921 787.038 879.566 787.038C822.21 787.038 781.444 763.356 765.255 747.168C759.474 741.385 756.226 733.544 756.226 725.367C756.226 717.191 759.474 709.349 765.255 703.566ZM632.874 941.215C632.874 924.859 639.372 909.173 650.938 897.607C662.504 886.041 678.19 879.544 694.547 879.544C710.904 879.544 726.59 886.041 738.156 897.607C749.722 909.173 756.22 924.859 756.22 941.215C756.22 957.571 749.722 973.257 738.156 984.823C726.59 996.388 710.904 1002.89 694.547 1002.89C678.19 1002.89 662.504 996.388 650.938 984.823C639.372 973.257 632.874 957.571 632.874 941.215ZM1092.15 307.455C1094.78 302.183 1095.85 296.268 1095.22 290.41C1094.6 284.552 1092.31 278.995 1088.62 274.399C1084.93 269.802 1080.01 266.357 1074.43 264.472C1068.84 262.587 1062.84 262.34 1057.12 263.761L933.776 294.597C929.788 295.521 926.024 297.231 922.703 299.626C919.383 302.02 916.572 305.052 914.436 308.545C912.3 312.037 910.88 315.919 910.26 319.966C909.64 324.013 909.832 328.142 910.825 332.114C911.818 336.086 913.592 339.82 916.044 343.098C918.495 346.377 921.575 349.135 925.103 351.211C928.632 353.287 932.538 354.64 936.595 355.191C940.652 355.741 944.778 355.478 948.732 354.417L1007.01 339.832L944.507 464.901C941.876 470.172 940.811 476.087 941.437 481.946C942.063 487.804 944.354 493.36 948.039 497.957C951.725 502.554 956.65 505.999 962.232 507.884C967.814 509.769 973.819 510.016 979.537 508.594L1102.88 477.759C1106.87 476.834 1110.64 475.125 1113.96 472.73C1117.28 470.335 1120.09 467.303 1122.22 463.811C1124.36 460.319 1125.78 456.436 1126.4 452.39C1127.02 448.343 1126.83 444.213 1125.83 440.242C1124.84 436.27 1123.07 432.536 1120.62 429.257C1118.16 425.978 1115.08 423.22 1111.56 421.144C1108.03 419.068 1104.12 417.715 1100.06 417.165C1096.01 416.615 1091.88 416.877 1087.93 417.938L1029.65 432.523L1092.15 307.455V307.455ZM802.475 386.178C798.385 386.178 794.464 387.802 791.572 390.694C788.681 393.585 787.056 397.507 787.056 401.596C787.056 405.685 788.681 409.606 791.572 412.497C794.464 415.389 798.385 417.013 802.475 417.013H864.147L790.14 515.686C788.422 517.977 787.376 520.701 787.119 523.552C786.861 526.404 787.404 529.271 788.684 531.832C789.965 534.393 791.933 536.547 794.369 538.052C796.804 539.557 799.611 540.355 802.475 540.355H894.984C899.073 540.355 902.995 538.73 905.886 535.839C908.778 532.948 910.402 529.026 910.402 524.937C910.402 520.848 908.778 516.926 905.886 514.035C902.995 511.144 899.073 509.519 894.984 509.519H833.311L907.318 410.846C909.036 408.556 910.083 405.832 910.34 402.98C910.597 400.128 910.055 397.262 908.774 394.701C907.494 392.14 905.525 389.986 903.09 388.48C900.654 386.975 897.847 386.178 894.984 386.178H802.475ZM633.676 458.394C634.971 454.52 637.75 451.317 641.404 449.49C645.058 447.663 649.288 447.361 653.165 448.65L745.674 479.486C748.494 480.429 750.981 482.167 752.836 484.492C754.69 486.816 755.833 489.627 756.126 492.587C756.42 495.546 755.851 498.526 754.489 501.17C753.127 503.813 751.029 506.006 748.449 507.484L670.495 552.072L730.317 572.023C732.29 572.621 734.123 573.608 735.708 574.927C737.293 576.246 738.597 577.869 739.543 579.7C740.489 581.532 741.059 583.535 741.218 585.59C741.376 587.645 741.121 589.712 740.467 591.667C739.814 593.622 738.774 595.426 737.411 596.973C736.048 598.519 734.388 599.777 732.531 600.671C730.673 601.564 728.655 602.077 726.596 602.177C724.536 602.277 722.478 601.964 720.542 601.255L628.033 570.419C625.213 569.476 622.726 567.738 620.871 565.413C619.017 563.089 617.874 560.278 617.58 557.318C617.287 554.359 617.856 551.379 619.218 548.735C620.58 546.092 622.678 543.899 625.258 542.421L703.181 497.802L643.359 477.851C639.49 476.551 636.294 473.768 634.473 470.115C632.652 466.462 632.355 462.236 633.645 458.363L633.676 458.394Z" fill="#FFA826"/>
</g>
<defs>
<filter id="filter0_d_101_35" x="228" y="232" width="933" height="933" filterUnits="userSpaceOnUse" color-interpolation-filters="sRGB">
<feFlood flood-opacity="0" result="BackgroundImageFix"/>
<feColorMatrix in="SourceAlpha" type="matrix" values="0 0 0 0 0 0 0 0 0 0 0 0 0 0 0 0 0 0 127 0" result="hardAlpha"/>
<feOffset dy="4"/>
<feGaussianBlur stdDeviation="2"/>
<feComposite in2="hardAlpha" operator="out"/>
<feColorMatrix type="matrix" values="0 0 0 0 0 0 0 0 0 0 0 0 0 0 0 0 0 0 0.25 0"/>
<feBlend mode="normal" in2="BackgroundImageFix" result="effect1_dropShadow_101_35"/>
<feBlend mode="normal" in="SourceGraphic" in2="effect1_dropShadow_101_35" result="shape"/>
</filter>
</defs>
</svg>
