<svg width="870" height="696" viewBox="0 0 870 696" fill="none" xmlns="http://www.w3.org/2000/svg">
<path d="M246.5 0.000114491C181.124 0.000114491 118.426 25.9706 72.1982 72.1983C25.9705 118.426 0 181.124 0 246.5V449.5C0.00134128 500.042 15.5392 549.363 44.5083 590.779C73.4775 632.196 114.478 663.706 161.954 681.041C209.431 698.376 261.089 700.699 309.929 687.693C358.769 674.688 402.432 646.983 435 608.333C467.568 646.983 511.231 674.688 560.071 687.693C608.911 700.699 660.569 698.376 708.046 681.041C755.522 663.706 796.522 632.196 825.492 590.779C854.461 549.363 869.999 500.042 870 449.5V246.5C869.999 195.958 854.461 146.637 825.492 105.221C796.522 63.8047 755.522 32.2944 708.046 14.9591C660.569 -2.37615 608.911 -4.69834 560.071 8.30713C511.231 21.3126 467.568 49.0171 435 87.6671C411.885 60.1792 383.032 38.0865 350.467 22.9412C317.901 7.79589 282.415 -0.0345348 246.5 0.000114491V0.000114491Z" fill="#9B9B9B"/>
<path d="M246.5 29.0001C188.815 29.0001 133.493 51.9152 92.7043 92.7044C51.9151 133.494 29 188.816 29 246.5V449.5C28.985 497.409 44.7887 543.982 73.9571 581.989C103.126 619.995 144.026 647.307 190.309 659.684C236.591 672.062 285.666 668.811 329.911 650.438C374.157 632.065 411.099 599.597 435 558.076C458.901 599.597 495.843 632.065 540.089 650.438C584.334 668.811 633.409 672.062 679.691 659.684C725.974 647.307 766.874 619.995 796.043 581.989C825.211 543.982 841.015 497.409 841 449.5V246.5C841.015 198.591 825.211 152.018 796.043 114.012C766.874 76.0054 725.974 48.6932 679.691 36.316C633.409 23.9387 584.334 27.189 540.089 45.5621C495.843 63.9352 458.901 96.403 435 137.924C415.927 104.801 388.46 77.2915 355.366 58.1683C322.272 39.0452 284.722 28.9844 246.5 29.0001V29.0001Z" fill="white"/>
<path d="M406 246.5C406 206.944 416.556 169.882 435 137.924C410.096 94.7925 371.191 61.4744 324.742 43.5001H319.899C351.625 62.5241 376.101 137.75 376.101 174V525.625C376.101 565.5 371.548 615.322 319.928 654.298C368.45 636.829 409.217 602.739 435 558.076C415.944 525.068 405.94 487.614 406 449.5V246.5V246.5ZM841 246.5C841 202.559 827.696 159.647 802.839 123.413C777.982 87.1782 742.737 59.3185 701.742 43.5001H696.899C744.923 75.2261 781.173 132.327 781.173 174.899V522C781.173 561.875 748.577 615.322 696.928 654.298C739.111 639.156 775.588 611.357 801.375 574.7C827.163 538.044 841.001 494.318 841 449.5V246.5V246.5Z" fill="#D3D3D3"/>
<path d="M161.298 174C134.379 174 108.562 184.694 89.5268 203.729C70.4918 222.764 59.7981 248.581 59.7981 275.5V420.5C59.7981 433.829 62.4235 447.028 67.5243 459.342C72.6252 471.657 80.1016 482.846 89.5268 492.271C98.9519 501.697 110.141 509.173 122.456 514.274C134.77 519.375 147.969 522 161.298 522C174.627 522 187.826 519.375 200.14 514.274C212.455 509.173 223.644 501.697 233.069 492.271C242.495 482.846 249.971 471.657 255.072 459.342C260.173 447.028 262.798 433.829 262.798 420.5V275.5C262.798 248.581 252.104 222.764 233.069 203.729C214.034 184.694 188.218 174 161.298 174V174ZM536.5 174C509.581 174 483.764 184.694 464.729 203.729C445.694 222.764 435 248.581 435 275.5V420.5C435 433.829 437.625 447.028 442.726 459.342C447.827 471.657 455.304 482.846 464.729 492.271C474.154 501.697 485.343 509.173 497.658 514.274C509.972 519.375 523.171 522 536.5 522C549.829 522 563.028 519.375 575.342 514.274C587.657 509.173 598.846 501.697 608.271 492.271C617.697 482.846 625.173 471.657 630.274 459.342C635.375 447.028 638 433.829 638 420.5V275.5C638 248.581 627.306 222.764 608.271 203.729C589.236 184.694 563.42 174 536.5 174V174Z" fill="black"/>
<path d="M224.402 285.969C235.19 276.979 234.697 258.651 223.3 244.963C211.903 231.275 193.952 227.476 183.164 236.437C172.405 245.398 172.898 263.755 184.295 277.443C195.663 291.102 213.643 294.93 224.402 285.969V285.969ZM601.315 285.969C612.074 276.979 611.581 258.651 600.184 244.963C588.816 231.275 570.836 227.476 560.077 236.437C549.289 245.398 549.811 263.755 561.179 277.443C572.576 291.102 590.527 294.93 601.315 285.969Z" fill="#F4F4F4"/>
</svg>
