<svg width="54" height="44" viewBox="0 0 54 44" fill="none" xmlns="http://www.w3.org/2000/svg">
<path d="M15.2899 0.532966C11.2633 0.532966 7.40156 2.13255 4.55428 4.97982C1.707 7.8271 0.107422 11.6888 0.107422 15.7155V28.2187C0.107504 31.3318 1.06452 34.3695 2.8488 36.9205C4.63308 39.4714 7.15838 41.4122 10.0826 42.4799C13.0068 43.5476 16.1885 43.6907 19.1967 42.8896C22.2049 42.0886 24.8941 40.3822 26.9001 38.0016C28.9061 40.3822 31.5953 42.0886 34.6035 42.8896C37.6117 43.6907 40.7935 43.5476 43.7177 42.4799C46.6418 41.4122 49.1671 39.4714 50.9514 36.9205C52.7357 34.3695 53.6927 31.3318 53.6928 28.2187V15.7155C53.6927 12.6025 52.7357 9.56471 50.9514 7.01378C49.1671 4.46284 46.6418 2.52205 43.7177 1.45433C40.7935 0.386606 37.6117 0.243577 34.6035 1.04462C31.5953 1.84565 28.9061 3.55204 26.9001 5.93259C25.4764 4.23954 23.6993 2.8788 21.6935 1.94596C19.6877 1.01313 17.502 0.530832 15.2899 0.532966V0.532966Z" fill="#9B9B9B"/>
<path d="M15.2899 2.31913C11.737 2.31913 8.32956 3.73053 5.81725 6.24283C3.30495 8.75513 1.89356 12.1625 1.89356 15.7155V28.2187C1.89263 31.1696 2.86602 34.0381 4.66257 36.379C6.45912 38.7199 8.97831 40.4021 11.829 41.1645C14.6796 41.9268 17.7022 41.7266 20.4274 40.595C23.1526 39.4633 25.4279 37.4636 26.9001 34.9062C28.3722 37.4636 30.6475 39.4633 33.3727 40.595C36.0979 41.7266 39.1205 41.9268 41.9712 41.1645C44.8218 40.4021 47.341 38.7199 49.1376 36.379C50.9341 34.0381 51.9075 31.1696 51.9066 28.2187V15.7155C51.9075 12.7647 50.9341 9.89608 49.1376 7.55519C47.341 5.2143 44.8218 3.53208 41.9712 2.76973C39.1205 2.00739 36.0979 2.20758 33.3727 3.33922C30.6475 4.47087 28.3722 6.47064 26.9001 9.02802C25.7253 6.9879 24.0335 5.29351 21.9952 4.11567C19.9569 2.93783 17.6441 2.31816 15.2899 2.31913V2.31913Z" fill="white"/>
<path d="M25.1135 15.7154C25.1135 13.2791 25.7636 10.9963 26.8996 9.02796C25.3657 6.37138 22.9695 4.31924 20.1086 3.21216H19.8103C21.7644 4.38389 23.2719 9.01724 23.2719 11.25V32.9074C23.2719 35.3634 22.9915 38.432 19.8121 40.8327C22.8007 39.7567 25.3116 37.657 26.8996 34.9061C25.7259 32.8731 25.1098 30.5662 25.1135 28.2187V15.7154V15.7154ZM51.9062 15.7154C51.9062 13.009 51.0868 10.366 49.5558 8.13417C48.0248 5.90239 45.8539 4.18645 43.3289 3.21216H43.0306C45.9885 5.16624 48.2213 8.68323 48.2213 11.3053V32.6841C48.2213 35.1401 46.2136 38.432 43.0324 40.8327C45.6306 39.9 47.8773 38.1878 49.4656 35.93C51.0539 33.6723 51.9062 30.9791 51.9062 28.2187V15.7154V15.7154Z" fill="#D3D3D3"/>
<path d="M10.0419 11.2498C8.38388 11.2498 6.79375 11.9084 5.62134 13.0808C4.44893 14.2532 3.79028 15.8433 3.79028 17.5014V26.4323C3.79028 27.2533 3.95199 28.0662 4.26616 28.8247C4.58033 29.5832 5.04083 30.2723 5.62134 30.8529C6.20186 31.4334 6.89103 31.8939 7.64952 32.208C8.408 32.5222 9.22094 32.6839 10.0419 32.6839C10.8629 32.6839 11.6758 32.5222 12.4343 32.208C13.1928 31.8939 13.882 31.4334 14.4625 30.8529C15.043 30.2723 15.5035 29.5832 15.8177 28.8247C16.1318 28.0662 16.2935 27.2533 16.2935 26.4323V17.5014C16.2935 15.8433 15.6349 14.2532 14.4625 13.0808C13.2901 11.9084 11.6999 11.2498 10.0419 11.2498V11.2498ZM33.1515 11.2498C31.4935 11.2498 29.9033 11.9084 28.7309 13.0808C27.5585 14.2532 26.8999 15.8433 26.8999 17.5014V26.4323C26.8999 27.2533 27.0616 28.0662 27.3757 28.8247C27.6899 29.5832 28.1504 30.2723 28.7309 30.8529C29.3114 31.4334 30.0006 31.8939 30.7591 32.208C31.5176 32.5222 32.3305 32.6839 33.1515 32.6839C33.9725 32.6839 34.7854 32.5222 35.5439 32.208C36.3024 31.8939 36.9916 31.4334 37.5721 30.8529C38.1526 30.2723 38.6131 29.5832 38.9272 28.8247C39.2414 28.0662 39.4031 27.2533 39.4031 26.4323V17.5014C39.4031 15.8433 38.7445 14.2532 37.5721 13.0808C36.3997 11.9084 34.8095 11.2498 33.1515 11.2498V11.2498Z" fill="black"/>
<path d="M13.9289 18.1465C14.5934 17.5928 14.563 16.4639 13.861 15.6209C13.1591 14.7778 12.0534 14.5438 11.389 15.0957C10.7263 15.6477 10.7567 16.7783 11.4586 17.6214C12.1588 18.4627 13.2662 18.6985 13.9289 18.1465V18.1465ZM37.1439 18.1465C37.8066 17.5928 37.7762 16.4639 37.0742 15.6209C36.374 14.7778 35.2666 14.5438 34.6039 15.0957C33.9395 15.6477 33.9716 16.7783 34.6718 17.6214C35.3738 18.4627 36.4794 18.6985 37.1439 18.1465Z" fill="#F4F4F4"/>
</svg>
